<svg width="137" height="137" viewBox="0 0 137 137" fill="none" xmlns="http://www.w3.org/2000/svg">
<path d="M0 14.2H27.4V41.6H0V14.2Z" fill="#E94420"/>
<path d="M0 41.6H27.4V69H0V41.6Z" fill="#E9AE20"/>
<path d="M0 69H27.4V96.3999H0V69Z" fill="#B1E920"/>
<path d="M109.6 14.2H137V41.6H109.6V14.2Z" fill="#E94420"/>
<path d="M109.6 41.6H137V69H109.6V41.6Z" fill="#E9AE20"/>
<path d="M109.6 69H137V96.3999H109.6V69Z" fill="#B1E920"/>
<path d="M27.4 96.3999L54.8 96.3997V123.8H27.4V96.3999Z" fill="#20E9AC"/>
<path d="M82.2 96.3997L109.6 96.3999V123.8H82.2V96.3997Z" fill="#20E9AC"/>
<path d="M54.8 69H82.2V96.3997H54.8V69Z" fill="#2091E9"/>
<path d="M54.8 41.6H82.2V69H54.8V41.6Z" fill="#C420E9"/>
<path d="M54.8 14.2H82.2V41.6H54.8V14.2Z" fill="#E92071"/>
</svg>
